<mxfile host="app.diagrams.net" modified="2023-07-20T02:39:49.243Z" agent="Mozilla/5.0 (Windows NT 10.0; Win64; x64) AppleWebKit/537.36 (KHTML, like Gecko) Chrome/114.0.0.0 Safari/537.36" version="21.5.0" etag="ceIkA-28HiyHM0xVJ368" type="github">
  <diagram name="第 1 页" id="HSz0-U5ruDRwE5ctq2Hr">
    <mxGraphModel>
      <root>
        <mxCell id="0" />
        <mxCell id="1" parent="0" />
      </root>
    </mxGraphModel>
  </diagram>
</mxfile>
